<svg width="14" height="13" viewBox="0 0 14 13" fill="none" xmlns="http://www.w3.org/2000/svg">
<path d="M11.9686 0.831656L1.20699 4.16605C1.00764 4.21897 0.830707 4.33483 0.702518 4.49641C0.574329 4.65799 0.501738 4.85664 0.495549 5.0628C0.489359 5.26896 0.549902 5.4716 0.668167 5.64058C0.786431 5.80956 0.956096 5.93583 1.15191 6.00061L6.03276 7.63603C6.05055 7.64279 6.06683 7.65301 6.08065 7.6661C6.09446 7.67919 6.10555 7.69489 6.11326 7.71229L7.90969 12.3728C7.98238 12.5601 8.11069 12.7205 8.27734 12.8326C8.44398 12.9447 8.64097 13.0031 8.84179 12.9999H8.86722C9.07141 12.9992 9.2702 12.9342 9.43528 12.814C9.60036 12.6938 9.7233 12.5246 9.78661 12.3305L13.21 2.05187C13.2637 1.8873 13.2715 1.71122 13.2327 1.54253C13.1939 1.37384 13.1099 1.2189 12.9897 1.09434C12.8611 0.959369 12.6973 0.863192 12.5168 0.816753C12.3362 0.770313 12.1463 0.775477 11.9686 0.831656Z" fill="#46A44E"/>
</svg>
