<svg width="59" height="48" viewBox="0 0 59 48" fill="none" xmlns="http://www.w3.org/2000/svg">
<mask id="mask0_252_36" style="mask-type:alpha" maskUnits="userSpaceOnUse" x="0" y="0" width="59" height="48">
<path d="M15.5619 37.343C15.1673 36.9462 15.17 36.3064 15.568 35.9129L35.7939 15.9132C36.4405 15.2739 37.5409 15.7375 37.5292 16.6443L37.3849 27.8465C37.3814 28.1155 37.2704 28.3721 37.0765 28.5596L22.3764 42.7692C21.9758 43.1564 21.3363 43.1501 20.9435 42.7551L15.5619 37.343Z" fill="#CDD3E2"/>
<path d="M0.810488 22.7489L20.9902 42.7363C21.3885 43.1308 22.033 43.1295 22.4296 42.7332L27.6413 37.5262C28.0379 37.13 28.0365 36.4889 27.6382 36.0943L7.45853 16.107C7.06019 15.7124 6.41574 15.7138 6.01911 16.1101L0.807372 21.317C0.410747 21.7133 0.412143 22.3544 0.810488 22.7489Z" fill="#CDD3E2"/>
<path d="M0.796987 22.6726C0.404686 22.2792 0.403271 21.645 0.793811 21.2499L20.7499 1.05543C21.397 0.400546 22.5159 0.872085 22.4932 1.79013L22.2201 12.8323C22.2137 13.0924 22.1068 13.3402 21.9217 13.524L7.44692 27.8999C7.04819 28.2959 6.40192 28.2944 6.00512 27.8964L0.796987 22.6726Z" fill="#CDD3E2"/>
<path d="M41.5763 47.6608C41.1866 48.0358 40.5699 48.0413 40.1737 47.6731L29.8555 38.0863C29.4271 37.6882 29.4244 37.0132 29.8497 36.6118L35.244 31.5207C35.6331 31.1534 36.242 31.1496 36.6358 31.5121L41.3849 35.8837L46.9737 40.9701C47.4064 41.3639 47.4159 42.039 46.9945 42.4447L41.5763 47.6608Z" fill="#CDD3E2"/>
<path d="M31.0368 7.53093L51.1467 27.4492C51.545 27.8437 52.1894 27.8423 52.5861 27.4461L57.7978 22.2391C58.1944 21.8429 58.193 21.2018 57.7947 20.8072L37.6848 0.888989C37.2865 0.494439 36.642 0.495827 36.2454 0.892088L31.0337 6.09905C30.637 6.49531 30.6384 7.13638 31.0368 7.53093Z" fill="#CDD3E2"/>
<path d="M31.1435 38.0324C30.2553 38.0031 29.8288 36.9349 30.4546 36.3073L51.0965 15.608C51.4924 15.211 52.1367 15.2085 52.5357 15.6023L57.8258 20.8233C58.2248 21.2168 58.2274 21.8573 57.8324 22.2544L42.0944 38.0692C41.895 38.2696 41.6206 38.3782 41.3373 38.3689L31.1435 38.0324Z" fill="#CDD3E2"/>
<path d="M21.0107 16.1976C21.0123 15.9276 21.1222 15.6694 21.3161 15.4804L36.2505 0.918814C36.6497 0.529539 37.2899 0.533442 37.6843 0.927552L42.9012 6.14049C43.2978 6.53679 43.2964 7.17785 42.898 7.57237L22.6847 27.5901C22.0408 28.2277 20.9435 27.7705 20.9487 26.8667L21.0107 16.1976Z" fill="#CDD3E2"/>
</mask>
<g mask="url(#mask0_252_36)">
<ellipse cx="30.0834" cy="26.8184" rx="31.8071" ry="31.6406" fill="url(#paint0_linear_252_36)"/>
</g>
<defs>
<linearGradient id="paint0_linear_252_36" x1="6.67343" y1="-4.82227" x2="45.5893" y2="49.5401" gradientUnits="userSpaceOnUse">
<stop stop-color="#62BB51"/>
<stop offset="1" stop-color="#2E7128"/>
</linearGradient>
</defs>
</svg>
