<svg>
<symbol id="arrow-down" viewBox="0 0 8 6" xmlns="http://www.w3.org/2000/svg">
<path d="M4.31216 5.22222L7.8722 1.66212C7.9546 1.57978 8 1.46986 8 1.35266C8 1.23546 7.9546 1.12554 7.8722 1.0432L7.61008 0.781023C7.43929 0.610423 7.1617 0.610423 6.99116 0.781023L4.00166 3.77053L1.00884 0.777706C0.926432 0.695365 0.816579 0.649902 0.699441 0.649902C0.582174 0.649902 0.472322 0.695365 0.389851 0.777706L0.127804 1.03988C0.0453982 1.12229 4.76837e-07 1.23214 4.76837e-07 1.34934C4.76837e-07 1.46655 0.0453982 1.57646 0.127804 1.6588L3.69109 5.22222C3.77376 5.30476 3.88413 5.35009 4.00146 5.34983C4.11925 5.35009 4.22956 5.30476 4.31216 5.22222Z"/>
</symbol>

<symbol id="telegram" viewBox="0 0 22 21" xmlns="http://www.w3.org/2000/svg">
<path d="M21.1458 1.14496C20.7858 0.839675 20.2203 0.795995 19.6357 1.03072H19.6347C19.0198 1.27744 2.22944 8.47935 1.54592 8.77359C1.4216 8.81679 0.335842 9.22192 0.447682 10.1243C0.547522 10.9379 1.42016 11.2749 1.52672 11.3138L5.79536 12.7754C6.07856 13.7181 7.12256 17.1962 7.35344 17.9392C7.49744 18.4024 7.73216 19.011 8.14352 19.1363C8.50448 19.2755 8.86352 19.1483 9.09584 18.9659L11.7056 16.5453L15.9186 19.8309L16.0189 19.8909C16.305 20.0176 16.579 20.081 16.8406 20.081C17.0427 20.081 17.2366 20.043 17.4219 19.9672C18.0531 19.708 18.3056 19.1066 18.332 19.0384L21.4789 2.68144C21.6709 1.80784 21.404 1.36336 21.1458 1.14496ZM9.56 13.36L8.12 17.2L6.68 12.4L17.72 4.24L9.56 13.36Z"/>
</symbol>

<symbol id="whatsapp" viewBox="0 0 24 24" xmlns="http://www.w3.org/2000/svg">
<path d="M12 0.959961C5.91267 0.959961 0.960032 5.9126 0.960032 12C0.960032 13.9008 1.45107 15.7699 2.38227 17.4192L0.977792 22.4304C0.931712 22.595 0.976352 22.7716 1.09539 22.894C1.18707 22.9886 1.31187 23.04 1.44003 23.04C1.47843 23.04 1.51731 23.0352 1.55523 23.026L6.78531 21.7305C8.38227 22.5878 10.1808 23.04 12 23.04C18.0874 23.04 23.04 18.0873 23.04 12C23.04 5.9126 18.0874 0.959961 12 0.959961ZM17.5536 15.8956C17.3175 16.5494 16.1847 17.146 15.6404 17.2262C15.1517 17.2977 14.5335 17.3284 13.8548 17.1153C13.4434 16.9857 12.9154 16.8139 12.2391 16.5254C9.39603 15.3129 7.53939 12.4862 7.39731 12.2995C7.25571 12.1128 6.24003 10.7822 6.24003 9.40508C6.24003 8.02796 6.97203 7.35068 7.23219 7.07036C7.49235 6.79004 7.79907 6.71996 7.98819 6.71996C8.17731 6.71996 8.36595 6.72236 8.53155 6.73004C8.70579 6.73868 8.93955 6.66428 9.16947 7.21052C9.40563 7.77116 9.97251 9.14828 10.0426 9.28892C10.1136 9.42908 10.1607 9.59276 10.0666 9.77948C9.97251 9.9662 9.92547 10.0828 9.78339 10.2465C9.64131 10.4102 9.48579 10.6113 9.35811 10.7371C9.21603 10.8768 9.06867 11.028 9.23379 11.3083C9.39891 11.5886 9.96771 12.5049 10.8106 13.247C11.893 14.2003 12.8064 14.496 13.0896 14.6361C13.3728 14.7763 13.5384 14.7528 13.7036 14.566C13.8687 14.3788 14.412 13.7486 14.6007 13.4688C14.7893 13.1889 14.9784 13.235 15.2386 13.3286C15.4988 13.4217 16.8922 14.0985 17.1754 14.2387C17.4586 14.3788 17.6477 14.4489 17.7188 14.5656C17.7898 14.6817 17.7898 15.2424 17.5536 15.8956Z"/>
</symbol>

<symbol id="video" viewBox="0 0 20 14" xmlns="http://www.w3.org/2000/svg">
<path d="M18.692 1.78226C18.5599 1.70491 18.4082 1.66491 18.254 1.66677C18.0831 1.66615 17.9155 1.71234 17.7703 1.80008L14.6032 3.72884V2.11115C14.6032 1.63961 14.4109 1.18747 14.0686 0.854015C13.7262 0.520565 13.2619 0.333344 12.7778 0.333344H1.82543C1.34125 0.333344 0.877001 0.520596 0.534619 0.854015C0.192236 1.18743 0 1.63961 0 2.11115V11.8889C0 12.3604 0.192269 12.8126 0.534619 13.146C0.876968 13.4795 1.34125 13.6667 1.82543 13.6667H12.7778C13.2619 13.6667 13.7262 13.4794 14.0686 13.146C14.4109 12.8126 14.6032 12.3604 14.6032 11.8889V10.2712L17.7702 12.2001L17.7703 12.1999C17.9155 12.2877 18.0831 12.3339 18.254 12.3333C18.4083 12.3351 18.5599 12.2951 18.692 12.2178C18.8348 12.1417 18.954 12.0299 19.0374 11.894C19.1208 11.758 19.1656 11.6028 19.1667 11.4444V2.5556C19.1656 2.39718 19.1208 2.24201 19.0374 2.10607C18.954 1.97013 18.8348 1.85837 18.692 1.78226L18.692 1.78226ZM13.6905 11.8889C13.6905 12.1247 13.5944 12.3509 13.4231 12.5175C13.252 12.6841 13.0198 12.7779 12.7777 12.7779H1.82541C1.58332 12.7779 1.35109 12.6841 1.18 12.5175C1.00875 12.3509 0.912613 12.1247 0.912613 11.8889V2.11122C0.912613 1.87545 1.00875 1.64928 1.18 1.48265C1.3511 1.31602 1.58332 1.22224 1.82541 1.22224H12.7777C13.0198 1.22224 13.252 1.31602 13.4231 1.48265C13.5944 1.64929 13.6905 1.87545 13.6905 2.11122V11.8889ZM18.254 11.4445L14.6031 9.22233V4.77791L18.254 2.5557V11.4445Z"/>
</symbol>

<symbol id="offer" viewBox="0 0 20 20" xmlns="http://www.w3.org/2000/svg">
<path fill-rule="evenodd" clip-rule="evenodd" d="M16.5261 1.81704C16.6439 1.97985 16.6077 2.20753 16.4453 2.3256C13.7216 4.30624 10.4347 5.38156 7.04405 5.38156H5.24942C3.21048 5.38156 1.55959 7.03702 1.55959 9.08154C1.55959 10.1044 1.9713 11.0294 2.64017 11.6966L2.64149 11.6979C3.30692 12.3686 4.22933 12.7815 5.24939 12.7815H7.04061C10.5105 12.7854 13.5548 14.1686 16.4946 15.9928C16.6651 16.0987 16.7178 16.3231 16.6122 16.4941C16.5067 16.6651 16.2829 16.7179 16.1124 16.6121C13.216 14.8147 10.3104 13.5135 7.03978 13.5098H5.24939C4.03011 13.5098 2.92441 13.0154 2.12717 12.2121C1.32622 11.4127 0.833313 10.3041 0.833313 9.08154C0.833313 6.63481 2.80936 4.65329 5.24942 4.65329H7.04405C10.2813 4.65329 13.419 3.62667 16.019 1.73604C16.1813 1.61797 16.4084 1.65424 16.5261 1.81704Z"/>
<path fill-rule="evenodd" clip-rule="evenodd" d="M16.2507 3.6038C15.9489 5.0156 15.7594 6.98249 15.7594 9.16649C15.7594 11.3505 15.9489 13.3175 16.2507 14.7294C16.4023 15.4383 16.5782 15.9882 16.7621 16.3521C16.8544 16.5348 16.9394 16.6516 17.0086 16.7178C17.0484 16.7559 17.0731 16.7684 17.0833 16.7722C17.0936 16.7684 17.1183 16.7559 17.1582 16.7178C17.2273 16.6516 17.3123 16.5348 17.4047 16.3521C17.5885 15.9882 17.7645 15.4383 17.916 14.7294C18.2178 13.3175 18.4072 11.3505 18.4072 9.16649C18.4072 6.98259 18.2178 5.01571 17.916 3.60387C17.7645 2.89497 17.5885 2.34511 17.4047 1.98126C17.3123 1.79854 17.2273 1.68179 17.1582 1.61557C17.1183 1.5774 17.0936 1.56491 17.0833 1.56112C17.0731 1.56491 17.0484 1.57741 17.0086 1.61555C16.9394 1.68177 16.8544 1.79851 16.7621 1.98123C16.5782 2.34506 16.4023 2.89491 16.2507 3.6038ZM17.0888 1.5596C17.0888 1.55965 17.0881 1.55982 17.0869 1.55994C17.0882 1.55962 17.0888 1.55955 17.0888 1.5596ZM17.0798 1.55995C17.0785 1.55982 17.0779 1.55965 17.0779 1.5596C17.0779 1.55955 17.0785 1.55962 17.0798 1.55995ZM19.1667 9.16649C19.1667 6.94889 18.9748 4.9309 18.66 3.45822C18.5033 2.72487 18.3121 2.10758 18.0883 1.66482C17.9769 1.44425 17.8479 1.24784 17.6952 1.10173C17.5416 0.95467 17.3359 0.833344 17.0833 0.833344C16.8308 0.833344 16.6251 0.954676 16.4715 1.10173C16.3189 1.24783 16.1899 1.44423 16.0784 1.66479C15.8547 2.10753 15.6635 2.7248 15.5067 3.45813C15.1919 4.93078 15 6.94878 15 9.16649C15 11.3842 15.1919 13.4023 15.5067 14.875C15.6635 15.6084 15.8546 16.2257 16.0784 16.6685C16.1899 16.8891 16.3188 17.0855 16.4715 17.2316C16.6251 17.3787 16.8308 17.5 17.0833 17.5C17.3359 17.5 17.5416 17.3787 17.6952 17.2316C17.8479 17.0855 17.9769 16.8891 18.0883 16.6685C18.3121 16.2257 18.5033 15.6084 18.66 14.875C18.9748 13.4023 19.1667 11.3842 19.1667 9.16649ZM17.0779 16.7738C17.0779 16.7737 17.0785 16.7735 17.0797 16.7734C17.0785 16.7737 17.0779 16.7738 17.0779 16.7738ZM17.0869 16.7734C17.0882 16.7735 17.0888 16.7737 17.0888 16.7738C17.0888 16.7738 17.0882 16.7737 17.0869 16.7734Z"/>
<path fill-rule="evenodd" clip-rule="evenodd" d="M3.62648 12.5042C3.81467 12.474 3.99028 12.6115 4.01872 12.8112L4.70063 17.6016H5.92119L5.30501 13.2896C5.27646 13.0898 5.40586 12.9033 5.59403 12.873C5.78221 12.8427 5.95789 12.98 5.98644 13.1798L6.66275 17.9126C6.67781 18.018 6.64881 18.1251 6.58335 18.206C6.51788 18.2868 6.42245 18.3333 6.32203 18.3333H4.40418C4.23374 18.3333 4.0889 18.2011 4.06344 18.0221L3.33723 12.9206C3.30879 12.7208 3.43829 12.5344 3.62648 12.5042Z"/>
<path fill-rule="evenodd" clip-rule="evenodd" d="M17.575 9.16666C17.575 8.20481 16.7952 7.42497 15.8333 7.42497V6.66666C17.214 6.66666 18.3333 7.786 18.3333 9.16666C18.3333 10.5473 17.214 11.6667 15.8333 11.6667V10.9083C16.7952 10.9083 17.575 10.1285 17.575 9.16666Z"/>
</symbol>

<symbol id="price" viewBox="0 0 13 16" xmlns="http://www.w3.org/2000/svg">
<path d="M7.42779 9.11111C8.63771 9.14098 9.81011 8.68993 10.688 7.85681C11.5659 7.02369 12.0777 5.87649 12.1111 4.66666C12.0777 3.45684 11.5659 2.30964 10.688 1.47652C9.81011 0.643404 8.63771 0.192346 7.42779 0.22222H2.66668C2.51934 0.22222 2.37803 0.280752 2.27384 0.384938C2.16966 0.489125 2.11112 0.630433 2.11112 0.777776V8H1.00001C0.852671 8 0.711363 8.05853 0.607177 8.16272C0.50299 8.2669 0.444458 8.40821 0.444458 8.55555C0.444458 8.7029 0.50299 8.8442 0.607177 8.94839C0.711363 9.05258 0.852671 9.11111 1.00001 9.11111H2.11112V10.2222H1.00001C0.852671 10.2222 0.711363 10.2808 0.607177 10.3849C0.50299 10.4891 0.444458 10.6304 0.444458 10.7778C0.444458 10.9251 0.50299 11.0664 0.607177 11.1706C0.711363 11.2748 0.852671 11.3333 1.00001 11.3333H2.11112V15.2222C2.11112 15.3696 2.16966 15.5109 2.27384 15.6151C2.37803 15.7192 2.51934 15.7778 2.66668 15.7778C2.81402 15.7778 2.95533 15.7192 3.05952 15.6151C3.1637 15.5109 3.22224 15.3696 3.22224 15.2222V11.3333H8.22224C8.36958 11.3333 8.51089 11.2748 8.61507 11.1706C8.71926 11.0664 8.77779 10.9251 8.77779 10.7778C8.77779 10.6304 8.71926 10.4891 8.61507 10.3849C8.51089 10.2808 8.36958 10.2222 8.22224 10.2222H3.22224V9.11111H7.42779ZM3.22224 1.33333H7.42779C8.34267 1.3048 9.23171 1.63926 9.90094 2.26373C10.5702 2.8882 10.9653 3.752 11 4.66666C10.9667 5.58183 10.572 6.4465 9.90249 7.07127C9.23294 7.69605 8.34307 8.03 7.42779 8H3.22224V1.33333Z"/>
</symbol>

<symbol id="answer" viewBox="0 0 20 20" xmlns="http://www.w3.org/2000/svg">
<path d="M10.09 19.3468C4.97295 19.3468 0.833313 15.1879 0.833313 10.09C0.833313 4.99214 4.97295 0.833328 10.09 0.833328C15.2071 0.833328 19.3467 4.99214 19.3467 10.09C19.3467 15.1879 15.1879 19.3468 10.09 19.3468ZM10.09 1.96407C5.6054 1.96407 1.98321 5.60543 1.98321 10.09C1.98321 14.5555 5.62456 18.1969 10.09 18.1969C14.5555 18.1969 18.1968 14.5555 18.1968 10.09C18.1968 5.60543 14.5555 1.96407 10.09 1.96407Z"/>
<path d="M10.1858 5.16479C8.44177 5.16479 7.00439 6.58304 7.00439 8.34622C7.00439 8.63364 7.23433 8.86371 7.52188 8.86371C7.8093 8.86371 8.03937 8.63377 8.03937 8.34622C8.03937 7.15802 8.99762 6.19977 10.1858 6.19977C11.374 6.19964 12.3323 7.15789 12.3323 8.34622C12.3323 9.53442 11.374 10.4927 10.1858 10.4927C9.8984 10.4927 9.66833 10.7226 9.66833 11.0102V12.5625C9.66833 12.8499 9.89827 13.08 10.1858 13.08C10.4732 13.08 10.7033 12.85 10.7033 12.5625V11.47C12.2173 11.2208 13.3672 9.91768 13.3672 8.32695C13.3672 6.5829 11.949 5.16479 10.1858 5.16479Z"/>
<path d="M10.9138 14.6512C10.9138 15.0535 10.5877 15.3796 10.1855 15.3796C9.7832 15.3796 9.45715 15.0535 9.45715 14.6512C9.45715 14.249 9.78321 13.9229 10.1855 13.9229C10.5877 13.9229 10.9138 14.249 10.9138 14.6512Z" />
</symbol>

<symbol id="case" viewBox="0 0 20 20" xmlns="http://www.w3.org/2000/svg">
<path fill-rule="evenodd" clip-rule="evenodd" d="M1 4.9375C1 4.62684 1.25184 4.375 1.5625 4.375H18.4375C18.7482 4.375 19 4.62684 19 4.9375V18.4375C19 18.7482 18.7482 19 18.4375 19H1.5625C1.25184 19 1 18.7482 1 18.4375V4.9375ZM2.125 5.5V17.875H17.875V5.5H2.125Z" />
<path fill-rule="evenodd" clip-rule="evenodd" d="M1 4.9375C1 4.62684 1.25184 4.375 1.5625 4.375H18.4375C18.7482 4.375 19 4.62684 19 4.9375V8.3125C19 9.86572 17.7407 11.125 16.1875 11.125H3.8125C2.25928 11.125 1 9.86572 1 8.3125V4.9375ZM2.125 5.5V8.3125C2.125 9.2444 2.8806 10 3.8125 10H16.1875C17.1194 10 17.875 9.2444 17.875 8.3125V5.5H2.125Z"/>
<path fill-rule="evenodd" clip-rule="evenodd" d="M6.625 2.125C6.3141 2.125 6.0625 2.3766 6.0625 2.6875V4.9375H4.9375V2.6875C4.9375 1.75528 5.69278 1 6.625 1H13.375C14.3072 1 15.0625 1.75528 15.0625 2.6875V4.9375H13.9375V2.6875C13.9375 2.3766 13.6859 2.125 13.375 2.125H6.625Z"/>
<path fill-rule="evenodd" clip-rule="evenodd" d="M10 8.875C9.6891 8.875 9.4375 9.1266 9.4375 9.4375V11.6875C9.4375 11.9984 9.6891 12.25 10 12.25C10.3109 12.25 10.5625 11.9984 10.5625 11.6875V9.4375C10.5625 9.1266 10.3109 8.875 10 8.875ZM8.3125 9.4375C8.3125 8.50528 9.06778 7.75 10 7.75C10.9322 7.75 11.6875 8.50528 11.6875 9.4375V11.6875C11.6875 12.6197 10.9322 13.375 10 13.375C9.06778 13.375 8.3125 12.6197 8.3125 11.6875V9.4375Z"/>
<path fill-rule="evenodd" clip-rule="evenodd" d="M8.875 10H11.125V11.125H8.875V10Z"/>
</symbol>

<symbol id="danger" viewBox="0 0 20 20" xmlns="http://www.w3.org/2000/svg">
<path fill-rule="evenodd" clip-rule="evenodd" d="M10 2.125C5.65076 2.125 2.125 5.65076 2.125 10C2.125 14.3492 5.65076 17.875 10 17.875C14.3492 17.875 17.875 14.3492 17.875 10C17.875 5.65076 14.3492 2.125 10 2.125ZM1 10C1 5.02944 5.02944 1 10 1C14.9706 1 19 5.02944 19 10C19 14.9706 14.9706 19 10 19C5.02944 19 1 14.9706 1 10Z"/>
<path fill-rule="evenodd" clip-rule="evenodd" d="M9.4375 15.625V14.5H10.5625V15.625H9.4375Z"/>
<path fill-rule="evenodd" clip-rule="evenodd" d="M10.5625 4.375V13.375H9.4375V4.375H10.5625Z"/>
</symbol>

<symbol id="calculator" viewBox="0 0 20 20" xmlns="http://www.w3.org/2000/svg">
<path d="M17.8261 0.869568H2.17391C0.978261 0.869568 0 1.84783 0 3.04348V16.9565C0 18.1522 0.978261 19.1304 2.17391 19.1304H17.8261C19.0217 19.1304 20 18.1522 20 16.9565V3.04348C20 1.84783 19.0217 0.869568 17.8261 0.869568ZM19.1304 16.9565C19.1304 17.6739 18.5435 18.2609 17.8261 18.2609H2.17391C1.45652 18.2609 0.869565 17.6739 0.869565 16.9565V3.04348C0.869565 2.32609 1.45652 1.73913 2.17391 1.73913H17.8261C18.5435 1.73913 19.1304 2.32609 19.1304 3.04348V16.9565Z"/>
<path d="M7.82625 6.0871H6.08712V4.34797C6.08712 4.10884 5.89146 3.91319 5.65233 3.91319C5.4132 3.91319 5.21755 4.10884 5.21755 4.34797V6.0871H3.47842C3.23929 6.0871 3.04364 6.28275 3.04364 6.52188C3.04364 6.76101 3.23929 6.95666 3.47842 6.95666H5.21755V8.69579C5.21755 8.93492 5.4132 9.13058 5.65233 9.13058C5.89146 9.13058 6.08712 8.93492 6.08712 8.69579V6.95666H7.82625C8.06538 6.95666 8.26103 6.76101 8.26103 6.52188C8.26103 6.28275 8.06538 6.0871 7.82625 6.0871Z"/>
<path d="M16.0871 6.08685H11.7393C11.5002 6.08685 11.3045 6.2825 11.3045 6.52163C11.3045 6.76076 11.5002 6.95641 11.7393 6.95641H16.0871C16.3262 6.95641 16.5219 6.76076 16.5219 6.52163C16.5219 6.2825 16.3262 6.08685 16.0871 6.08685Z"/>
<path d="M7.47811 11.6303C7.30419 11.4564 7.02158 11.4564 6.86941 11.6303L5.65202 12.8694L4.43463 11.6303C4.26071 11.4564 3.99984 11.4564 3.82593 11.6303C3.65202 11.8042 3.65202 12.0651 3.82593 12.239L5.06506 13.4781L3.82593 14.7172C3.65202 14.8912 3.65202 15.152 3.82593 15.3259C3.91289 15.4129 4.02158 15.4564 4.13028 15.4564C4.23897 15.4564 4.34767 15.4129 4.43463 15.3259L5.65202 14.0868L6.86941 15.3259C6.95637 15.4129 7.06506 15.4564 7.17376 15.4564C7.28245 15.4564 7.39115 15.4129 7.47811 15.3259C7.65202 15.152 7.65202 14.8912 7.47811 14.7172L6.26071 13.4781L7.49984 12.239C7.65202 12.0651 7.65202 11.8042 7.47811 11.6303Z"/>
<path d="M16.0871 13.9132H11.7393C11.5002 13.9132 11.3045 14.1088 11.3045 14.348C11.3045 14.5871 11.5002 14.7828 11.7393 14.7828H16.0871C16.3262 14.7828 16.5219 14.5871 16.5219 14.348C16.5219 14.1088 16.3262 13.9132 16.0871 13.9132Z"/>
<path d="M16.0871 11.3045H11.7393C11.5002 11.3045 11.3045 11.5002 11.3045 11.7393C11.3045 11.9785 11.5002 12.1741 11.7393 12.1741H16.0871C16.3262 12.1741 16.5219 11.9785 16.5219 11.7393C16.5219 11.5002 16.3262 11.3045 16.0871 11.3045Z"/>
</symbol>

<symbol id="burger" viewBox="0 0 18 12" xmlns="http://www.w3.org/2000/svg">
<path d="M0.666687 5.16667H17.3334V6.83334H0.666687V5.16667ZM0.666687 0.166672H17.3334V1.83334H0.666687V0.166672ZM0.666687 10.1667H17.3334V11.8333H0.666687V10.1667Z"/>
</symbol>

<symbol id="arrow-button" viewBox="0 0 9 9" xmlns="http://www.w3.org/2000/svg">
<path d="M2.96255 0.794247L2.86262 0.797789L2.86616 0.897726L2.88691 1.48329L2.89046 1.58323L2.99039 1.57969L7.27945 1.42766L0.975656 7.41095L0.903126 7.47979L0.971968 7.55232L1.37534 7.97731L1.44419 8.04984L1.51672 7.98099L7.82051 1.9977L7.44509 6.273L7.43634 6.37262L7.53595 6.38137L8.11964 6.43262L8.21926 6.44137L8.22801 6.34175L8.7032 0.930383L8.70715 0.885483L8.67612 0.852791L8.46741 0.632906L8.43638 0.600214L8.39134 0.601812L2.96255 0.794247Z" />
</symbol>

<symbol id="arrow-menu" viewBox="0 0 14 13" xmlns="http://www.w3.org/2000/svg">
<path d="M11.9686 0.831656L1.20699 4.16605C1.00764 4.21897 0.830707 4.33483 0.702518 4.49641C0.574329 4.65799 0.501738 4.85664 0.495549 5.0628C0.489359 5.26896 0.549902 5.4716 0.668167 5.64058C0.786431 5.80956 0.956096 5.93583 1.15191 6.00061L6.03276 7.63603C6.05055 7.64279 6.06683 7.65301 6.08065 7.6661C6.09446 7.67919 6.10555 7.69489 6.11326 7.71229L7.90969 12.3728C7.98238 12.5601 8.11069 12.7205 8.27734 12.8326C8.44398 12.9447 8.64097 13.0031 8.84179 12.9999H8.86722C9.07141 12.9992 9.2702 12.9342 9.43528 12.814C9.60036 12.6938 9.7233 12.5246 9.78661 12.3305L13.21 2.05187C13.2637 1.8873 13.2715 1.71122 13.2327 1.54253C13.1939 1.37384 13.1099 1.2189 12.9897 1.09434C12.8611 0.959369 12.6973 0.863192 12.5168 0.816753C12.3362 0.770313 12.1463 0.775477 11.9686 0.831656Z"/>
</symbol>

<symbol id="poligon-1" viewBox="0 0 110 110" xmlns="http://www.w3.org/2000/svg">
<path fill-rule="evenodd" clip-rule="evenodd" d="M13.7433 110C8.53995 106.091 3.90938 101.46 0 96.2567V13.7433C3.90938 8.53995 8.53995 3.90938 13.7433 0H96.2567C101.46 3.90938 106.091 8.53995 110 13.7433V96.2567C106.091 101.46 101.46 106.091 96.2567 110H13.7433Z" fill="#86C58B"/>
</symbol>

<symbol id="poligon-2" viewBox="0 0 90 110" xmlns="http://www.w3.org/2000/svg">
<path fill-rule="evenodd" clip-rule="evenodd" d="M13.7433 110C8.53995 106.091 3.90938 101.46 0 96.2567V13.7433C3.90938 8.53995 8.53995 3.90938 13.7433 0H96.2567C101.46 3.90938 106.091 8.53995 110 13.7433V96.2567C106.091 101.46 101.46 106.091 96.2567 110H13.7433Z" fill="#86C58B"/>
</symbol>
</svg>